<?xml version="1.0" standalone="no"?><!DOCTYPE svg PUBLIC "-//W3C//DTD SVG 1.1//EN" "http://www.w3.org/Graphics/SVG/1.1/DTD/svg11.dtd"><svg class="icon" width="200px" height="200.00px" viewBox="0 0 1024 1024" version="1.1" xmlns="http://www.w3.org/2000/svg"><path fill="#333333" d="M958.3 193.7H256.2c-35.1 0-63.7 28.6-63.7 63.7v700.9c0 35.1 28.7 63.7 63.7 63.7h702.1c35.1 0 63.7-28.7 63.7-63.7V257.4c0.1-35.1-28.6-63.7-63.7-63.7z m-0.2 764.4H256.6V257.4H958v700.7zM256.2 767.4H65.6v-701h701.3v127.9h64.6v-128c0-35.1-28.7-64.3-63.7-64.3H65.7C30.6 2 2 31.4 2 66.3v700.9c0 35.1 28.7 63.7 63.7 63.7h190.6v-63.5h-0.1z m574.1-191.6H639.1V384.5h-64.2v191.3H384v63.8h191.2v191.2h63.9V639.6h191.2v-63.8z" /></svg>